<svg width="512" height="512" viewBox="0 0 512 512" fill="none" xmlns="http://www.w3.org/2000/svg">
<rect width="512" height="512" rx="50" fill="url(#paint0_linear_1_5)" fill-opacity="0.5"/>
<rect width="512" height="512" rx="50" fill="url(#paint1_linear_1_5)" fill-opacity="0.5"/>
<path d="M182.497 132.727H234.173V305.142C234.173 321.08 230.591 334.924 223.428 346.676C216.344 358.428 206.484 367.483 193.847 373.842C181.209 380.201 166.519 383.381 149.777 383.381C134.886 383.381 121.363 380.765 109.209 375.533C97.1349 370.22 87.5563 362.171 80.473 351.385C73.3897 340.518 69.8883 326.875 69.9688 310.455H122.007C122.168 316.974 123.496 322.569 125.991 327.237C128.567 331.825 132.069 335.367 136.496 337.862C141.003 340.277 146.316 341.484 152.433 341.484C158.873 341.484 164.306 340.116 168.733 337.379C173.241 334.562 176.661 330.457 178.996 325.064C181.33 319.671 182.497 313.03 182.497 305.142V132.727ZM376.403 132.727H428.08V305.142C428.08 321.08 424.498 334.924 417.334 346.676C410.25 358.428 400.39 367.483 387.753 373.842C375.116 380.201 360.426 383.381 343.683 383.381C328.792 383.381 315.269 380.765 303.115 375.533C291.041 370.22 281.463 362.171 274.379 351.385C267.296 340.518 263.795 326.875 263.875 310.455H315.913C316.074 316.974 317.402 322.569 319.898 327.237C322.473 331.825 325.975 335.367 330.402 337.862C334.91 340.277 340.222 341.484 346.339 341.484C352.779 341.484 358.212 340.116 362.639 337.379C367.147 334.562 370.568 330.457 372.902 325.064C375.236 319.671 376.403 313.03 376.403 305.142V132.727Z" fill="white"/>
<defs>
<linearGradient id="paint0_linear_1_5" x1="256" y1="0" x2="256" y2="512" gradientUnits="userSpaceOnUse">
<stop offset="0.235577" stop-color="#089E84"/>
<stop offset="0.735577" stop-color="#2DC4E8"/>
</linearGradient>
<linearGradient id="paint1_linear_1_5" x1="21" y1="-2.37027e-06" x2="482.5" y2="496.5" gradientUnits="userSpaceOnUse">
<stop offset="0.22099" stop-color="#12FFD6"/>
<stop offset="0.567308" stop-color="#01E4A9"/>
<stop offset="0.912046" stop-color="#15B1D7"/>
</linearGradient>
</defs>
</svg>
